<svg width="36" height="20" viewBox="0 0 36 20" fill="none" xmlns="http://www.w3.org/2000/svg">
<path d="M8.54265 7.00003L10.461 0.30103H8.51252L7.50817 4.77038L6.36322 0.30103H5.03748L3.89252 4.77038L2.87813 0.30103H0.939739L2.85804 7.00003H4.68596L5.70035 2.80186L6.71474 7.00003H8.54265Z" fill="#041431"/>
<path d="M17.0852 7.00003L14.5542 0.30103H12.3848L9.86392 7.00003H11.8224L12.1538 6.03586H14.7953L15.1267 7.00003H17.0852ZM14.3232 4.52934H12.6158L13.4695 2.00842L14.3232 4.52934Z" fill="#041431"/>
<path d="M20.186 7.00003V1.80755H22.0541V0.30103H16.5804V1.80755H18.4585V7.00003H20.186Z" fill="#041431"/>
<path d="M25.935 7.12055C27.552 7.12055 28.4258 6.18651 28.8576 5.32277L27.3712 4.61973C27.1502 5.15203 26.5778 5.59394 25.935 5.59394C24.8402 5.59394 24.0669 4.75029 24.0669 3.65555C24.0669 2.56081 24.8402 1.71716 25.935 1.71716C26.5778 1.71716 27.1502 2.15907 27.3712 2.69138L28.8576 1.98833C28.4157 1.10451 27.552 0.190552 25.935 0.190552C23.8761 0.190552 22.3093 1.5866 22.3093 3.65555C22.3093 5.71447 23.8761 7.12055 25.935 7.12055Z" fill="#041431"/>
<path d="M35.8417 7.00003V0.30103H34.1142V2.80186H31.3322V0.30103H29.6047V7.00003H31.3322V4.30838H34.1142V7.00003H35.8417Z" fill="#041431"/>
<path d="M10.283 20V17.3613H6.23331V10H3V20H10.283Z" fill="#041431"/>
<path d="M14.8149 20V10H11.5816V20H14.8149Z" fill="#041431"/>
<path d="M23.3875 20L27.3251 10H23.6596L21.3547 16.7317L19.0498 10H15.3843L19.3219 20H23.3875Z" fill="#041431"/>
<path d="M36 20V17.3613H31.134V16.2669H35.888V13.6282H31.134V12.6387H36V10H27.9007V20H36Z" fill="#041431"/>
</svg>
