<svg width="36" height="20" viewBox="0 0 36 20" fill="none" xmlns="http://www.w3.org/2000/svg">
<path d="M6.71474 7.00006H8.54266L10.4509 0.30106H8.51253L7.50818 4.77041L6.36322 0.30106H5.03748L3.89253 4.77041L2.87813 0.30106H0.939743L2.85805 7.00006H4.68596L5.70035 2.80189L6.71474 7.00006Z" fill="white"/>
<path d="M15.2071 7.00006H17.0852L14.5542 0.30106H12.3848L9.86392 7.00006H11.7421L12.0835 5.98567H14.8656L15.2071 7.00006ZM13.4695 1.80758L14.4136 4.52937H12.5355L13.4695 1.80758Z" fill="white"/>
<path d="M18.4585 7.00006H20.186V1.80758H22.0541V0.30106H16.5804V1.80758H18.4585V7.00006Z" fill="white"/>
<path d="M25.8848 7.12058C27.552 7.12058 28.4258 6.18654 28.8576 5.3228L27.3712 4.61976C27.1502 5.15206 26.5778 5.59397 25.8848 5.59397C24.8402 5.59397 24.0669 4.75032 24.0669 3.65558C24.0669 2.56084 24.8402 1.71719 25.8848 1.71719C26.5778 1.71719 27.1502 2.1591 27.3712 2.69141L28.8576 1.98837C28.4157 1.10454 27.552 0.190582 25.8848 0.190582C23.8761 0.190582 22.3093 1.58663 22.3093 3.65558C22.3093 5.7145 23.8761 7.12058 25.8848 7.12058Z" fill="white"/>
<path d="M34.1142 7.00006H35.8417V0.30106H34.1142V2.80189H31.3322V0.30106H29.6047V7.00006H31.3322V4.30841H34.1142V7.00006Z" fill="white"/>
<path d="M10.283 20.0001V17.3614H6.23331V10.0001H3V20.0001H10.283Z" fill="white"/>
<path d="M14.8149 20.0001V10.0001H11.5816V20.0001H14.8149Z" fill="white"/>
<path d="M23.3875 20.0001L27.3251 10.0001H23.6596L21.3547 16.7317L19.0498 10.0001H15.3843L19.3219 20.0001H23.3875Z" fill="white"/>
<path d="M36 20.0001V17.3614H31.134V16.2669H35.888V13.6282H31.134V12.6387H36V10.0001H27.9007V20.0001H36Z" fill="white"/>
</svg>
